<svg width="24" height="25" viewBox="0 0 24 25" fill="none" xmlns="http://www.w3.org/2000/svg">
<path fill-rule="evenodd" clip-rule="evenodd" d="M21.0264 6.1504H2.8252C2.37012 6.1504 2 5.78028 2 5.3252C2 4.87012 2.37012 4.5 2.8252 4.5H21.0264C21.4815 4.5 21.8516 4.87012 21.8516 5.3252C21.8516 5.78028 21.4815 6.1504 21.0264 6.1504ZM20.6887 8.12502C21.3078 8.12502 21.8918 8.3594 22.3322 8.78419C22.7727 9.209 23.0256 9.79983 23.0256 10.4043C23.0256 11.0147 22.7814 11.5879 22.3381 12.0195L14.8244 19.6895C14.2688 20.2266 13.5949 20.6143 12.8615 20.8242L10.5188 21.4981C10.4543 21.5166 10.3889 21.5254 10.3244 21.5254C10.1398 21.5254 9.95919 21.4522 9.8254 21.3164C9.64473 21.1299 9.58028 20.8633 9.65645 20.6182L10.3547 18.3584C10.5734 17.6485 10.9748 16.9951 11.5168 16.4697L17.5373 10.2422L17.5628 10.2161L17.5773 10.2012L19.0461 8.78419C19.4856 8.3594 20.0686 8.12502 20.6887 8.12502ZM21.3459 11.0313C21.5314 10.8516 21.6252 10.6338 21.6252 10.4043C21.6252 10.1748 21.5314 9.95706 21.3605 9.79104C21.009 9.45315 20.3693 9.45218 20.0178 9.79202L19.0676 10.709L20.4006 11.9951L21.3459 11.0313ZM13.8332 18.7002L19.4211 12.9961L18.0773 11.6983L12.5129 17.4531C12.1213 17.832 11.8439 18.2813 11.6926 18.7705L11.3762 19.7949L12.4748 19.4785C12.9865 19.332 13.4553 19.0635 13.8332 18.7002ZM6.48926 18.3906H2.8252C2.37012 18.3906 2 18.7608 2 19.2158C2 19.6709 2.37012 20.041 2.8252 20.041H6.48926C6.94434 20.041 7.31446 19.6709 7.31446 19.2158C7.31446 18.7608 6.94434 18.3906 6.48926 18.3906ZM9.65723 13.335H2.8252C2.37012 13.335 2 12.9649 2 12.5098C2 12.0547 2.37012 11.6846 2.8252 11.6846H9.65723C10.1123 11.6846 10.4824 12.0547 10.4824 12.5098C10.4824 12.9649 10.1123 13.335 9.65723 13.335Z" fill="#C6A1FF"/>
</svg>
